<svg xmlns="http://www.w3.org/2000/svg" viewBox="0 0 64 64">
  <rect width="64" height="64" rx="14" fill="#FAF4E8"/>
  <g transform="translate(8,4) scale(.6)">
    <path d="M40 96 Q 32 72, 40 52 Q 48 32, 40 14" stroke="#4A6B5D" stroke-width="2.2" fill="none" stroke-linecap="round"/>
    <path d="M36 80 Q 18 78, 14 67 Q 28 74, 38 80 Z" fill="#7B9472"/>
    <path d="M42 76 Q 60 73, 64 62 Q 50 70, 40 76 Z" fill="#7B9472"/>
    <path d="M38 58 Q 20 53, 18 42 Q 32 50, 40 58 Z" fill="#7B9472"/>
    <path d="M42 54 Q 58 48, 60 37 Q 48 46, 40 54 Z" fill="#7B9472"/>
    <path d="M38 36 Q 26 30, 26 22 Q 36 28, 40 36 Z" fill="#7B9472"/>
    <path d="M42 32 Q 54 26, 54 18 Q 44 24, 40 32 Z" fill="#7B9472"/>
    <circle cx="40" cy="11" r="6" fill="#D4A89A"/>
  </g>
</svg>
